<svg width="110" height="25" viewBox="0 0 100 25" fill="none" xmlns="http://www.w3.org/2000/svg">
<path d="M55.967 0.295898H61.7706V20.7482C61.7706 21.9194 61.0523 22.9762 59.9893 23.4332C59.6157 23.5762 59.2422 23.6618 58.8688 23.6618C58.1218 23.6618 57.4322 23.2904 56.8001 22.8048L37.4071 8.86531V23.6618H31.6035V3.20949C31.6035 2.03835 32.3218 0.952886 33.3848 0.524416C34.4766 0.0673812 35.597 0.467286 36.5451 1.15284L55.9383 15.121V0.295898H55.967ZM91.2768 11.2076C90.6159 10.5506 89.8114 10.0079 88.9495 9.63655C88.0589 9.26521 87.082 9.06526 86.1052 9.06526H70.5621C69.7289 9.06526 69.068 8.37971 69.068 7.57989C69.068 6.78008 69.7576 6.09453 70.5621 6.09453H88.9783C90.5872 6.09453 91.88 4.80912 91.88 3.20949C91.88 1.60987 90.5872 0.295898 88.9783 0.295898H70.5621C69.5852 0.295898 68.6084 0.495852 67.7177 0.867192C66.8558 1.23853 66.0513 1.75269 65.3905 2.43825C64.7298 3.09523 64.1838 3.89505 63.8104 4.75198C63.4368 5.6375 63.2357 6.60869 63.2357 7.57989C63.2357 8.55109 63.4368 9.52229 63.8104 10.4078C64.1838 11.2647 64.7011 12.0646 65.3905 12.7215C66.0513 13.3785 66.8558 13.9212 67.7177 14.2926C68.6084 14.6639 69.5852 14.8639 70.5621 14.8639H86.1052C86.9384 14.8639 87.5993 15.5209 87.5993 16.3492C87.5993 17.1776 86.9384 17.8346 86.1052 17.8346H66.1375C64.5287 17.8346 63.2357 19.12 63.2357 20.7196C63.2357 22.3192 64.5287 23.6046 66.1375 23.6046H86.1052C87.082 23.6046 88.0589 23.4048 88.9495 23.0334C89.8114 22.662 90.6159 22.1478 91.2768 21.4624C91.9375 20.8054 92.4834 20.0056 92.8569 19.1486C93.2304 18.263 93.4315 17.2919 93.4315 16.3207C93.4315 15.3495 93.2304 14.3783 92.8569 13.4928C92.4834 12.6644 91.9662 11.8646 91.2768 11.2076ZM30.2245 11.9789C30.2245 18.4344 24.9668 23.6618 18.4736 23.6618H4.76926H2.12605H0V11.9789V0.295898H18.4736C24.9668 0.295898 30.2245 5.52324 30.2245 11.9789ZM24.3635 11.9789C24.3635 10.4078 23.7601 8.951 22.6397 7.83697C21.5192 6.72295 20.0539 6.1231 18.4736 6.1231H5.83228V11.9789V17.8346H18.4449C20.0251 17.8346 21.4903 17.2348 22.6109 16.1207C23.7601 15.0067 24.3635 13.5499 24.3635 11.9789Z" fill="#FF9519"/>
</svg>
